<?xml version="1.0" standalone="no"?>
<!DOCTYPE svg PUBLIC "-//W3C//DTD SVG 20010904//EN"
 "http://www.w3.org/TR/2001/REC-SVG-20010904/DTD/svg10.dtd">
<svg version="1.0" xmlns="http://www.w3.org/2000/svg"
 width="301.000000pt" height="220.000000pt" viewBox="0 0 301.000000 220.000000"
 preserveAspectRatio="xMidYMid meet">
<metadata>
Created by potrace 1.16, written by Peter Selinger 2001-2019
</metadata>
<g transform="translate(0.000000,220.000000) scale(0.100000,-0.100000)"
fill="#000000" stroke="none">
<path d="M1078 1883 c-26 -7 -30 -35 -13 -82 13 -38 13 -45 0 -64 -8 -12 -15
-30 -15 -40 0 -18 -6 -19 -67 -14 -274 21 -511 35 -855 53 l-128 7 0 -73 0
-73 87 8 c86 7 381 7 392 0 4 -2 67 -6 141 -9 74 -3 198 -8 275 -12 156 -6
175 -9 175 -29 0 -7 7 -15 15 -19 8 -3 15 -14 15 -25 0 -15 5 -19 18 -15 16 5
16 5 0 -6 -10 -6 -26 -10 -35 -8 -13 2 -19 -5 -21 -23 l-3 -25 -107 4 -108 4
-98 -147 c-53 -80 -113 -170 -131 -200 l-34 -53 40 -6 c66 -11 36 -23 -68 -28
-62 -3 -119 -13 -155 -26 -124 -44 -390 -226 -396 -271 -4 -22 0 -21 41 18
129 123 362 251 457 251 l39 0 -52 -79 c-29 -44 -54 -78 -58 -76 -3 2 -6 -2
-6 -10 0 -25 -185 -295 -202 -295 -11 0 -12 -3 -4 -8 7 -5 -27 -63 -103 -177
l-114 -170 0 -82 0 -83 1500 0 1500 0 0 659 0 659 -27 5 c-16 3 -44 5 -63 6
-19 0 -107 5 -195 11 -88 5 -177 10 -197 10 -36 0 -38 1 -38 34 0 18 3 55 7
81 l6 48 171 -7 c94 -4 208 -9 254 -12 l82 -4 0 44 0 44 -67 7 c-38 3 -108 10
-158 15 -49 5 -200 14 -335 20 -501 20 -756 30 -799 30 l-43 0 6 38 c4 20 9
56 12 79 6 41 6 42 -30 48 -23 5 -38 14 -42 27 -4 15 -9 17 -17 9 -24 -24
-357 0 -357 25 0 14 -52 18 -92 7z m777 -405 c4 -3 -3 -27 -15 -52 -14 -33
-26 -46 -41 -46 -11 0 -19 -6 -18 -12 2 -7 -1 -28 -5 -45 -7 -32 -8 -33 -31
-15 -28 19 -32 47 -10 56 8 3 15 12 15 21 0 12 -13 15 -57 16 -41 0 -52 3 -38
9 11 4 40 6 65 5 34 -3 30 -1 -16 7 -59 10 -61 11 -60 40 l1 30 102 -4 c56 -2
105 -6 108 -10z m92 -647 c-5 -19 4 -25 66 -45 9 -3 17 -15 17 -26 0 -16 7
-20 30 -20 30 0 35 -8 31 -52 -2 -12 5 -18 19 -18 18 0 19 -3 9 -22 -11 -20
-12 -21 -25 -4 -15 21 -38 11 -29 -12 5 -13 -15 -14 -186 -8 -194 7 -254 17
-189 31 23 5 35 3 41 -6 4 -7 9 -11 11 -9 2 3 8 14 14 25 6 11 23 21 38 23 26
3 27 4 12 27 -15 23 -14 26 15 60 17 19 38 35 48 35 9 0 27 9 41 20 32 25 44
25 37 1z m-547 -236 c-7 -8 -16 -13 -20 -10 -4 3 -7 -3 -6 -12 0 -9 -5 -18
-13 -21 -10 -3 -12 2 -7 22 5 19 3 26 -9 26 -8 0 -15 -3 -16 -7 -2 -23 -9 -43
-32 -95 l-26 -58 -50 0 -51 0 11 27 c7 19 7 29 0 31 -16 5 -13 27 3 42 8 6 12
18 9 27 -5 13 0 14 26 8 28 -6 33 -4 38 14 5 19 13 21 80 21 66 0 74 -2 63
-15z m177 3 c-17 -46 -18 -58 -4 -58 8 0 18 15 23 33 6 17 16 32 24 32 15 0
16 -13 4 -52 -4 -15 -2 -23 6 -23 6 0 14 9 17 20 6 24 19 26 27 4 10 -26 -2
-34 -49 -34 -35 0 -45 -4 -50 -20 -5 -15 -15 -20 -38 -19 -28 0 -29 2 -12 10
16 7 14 8 -10 4 -16 -4 -35 -13 -41 -21 -16 -20 -61 -18 -73 5 -8 14 -6 22 8
35 10 9 20 13 24 10 8 -9 48 6 42 16 -3 5 8 7 25 5 16 -2 30 0 30 4 0 10 39
61 47 61 3 0 3 -6 0 -12z m-577 -35 c0 -5 -9 -21 -20 -38 -25 -38 -27 -59 -2
-46 11 6 28 5 49 -4 17 -7 34 -11 36 -8 3 2 8 -5 12 -16 3 -12 12 -21 20 -21
8 0 13 -12 12 -34 -1 -30 -5 -35 -31 -40 -67 -14 -73 -47 -14 -76 l42 -20 24
23 25 22 -24 -35 c-13 -19 -25 -37 -27 -40 -2 -2 -7 1 -11 8 -6 10 -15 6 -38
-13 -27 -25 -29 -30 -23 -73 4 -25 16 -53 26 -62 18 -15 44 -54 44 -65 0 -9
-267 -3 -282 6 -10 7 -10 9 0 9 6 0 12 4 12 9 0 5 -19 2 -41 -6 -23 -7 -44
-12 -46 -9 -8 8 6 53 21 69 8 7 26 45 42 83 15 38 31 72 36 75 6 3 10 10 10
15 1 21 21 58 25 47 4 -10 8 -9 19 1 20 20 18 25 -11 21 -14 -1 -25 2 -25 6 0
5 5 9 10 9 6 0 10 7 10 15 0 22 40 40 52 24 8 -11 9 -10 4 3 -3 10 -1 20 3 22
10 6 12 56 2 56 -17 -1 -36 -22 -36 -41 0 -12 -6 -24 -12 -26 -8 -3 -13 5 -13
19 0 13 -6 30 -12 37 -10 11 -10 14 0 18 6 3 12 14 12 26 0 11 3 17 6 14 4 -3
16 0 28 8 11 8 28 15 38 15 10 0 18 5 18 10 0 6 7 10 15 10 8 0 15 -3 15 -7z
m860 -63 c63 -6 120 -12 126 -15 7 -2 9 -15 6 -31 l-5 -27 -144 7 c-165 7
-165 7 -178 23 -5 6 -23 14 -40 16 l-30 4 31 2 c18 0 34 8 38 16 7 18 38 19
196 5z"/>
</g>
</svg>
